{
    "asset": {
        "generator": "COLLADA2GLTF",
        "version": "2.0"
    },
    "scenes": [
        {
            "nodes": [
                0
            ]
        }
    ],
    "scene": 0,
    "nodes": [
        {
            "children": [
                2,
                1
            ],
            "name": "Y_UP"
        },
        {
            "mesh": 0,
            "matrix": [
                1.0,
                0.0,
                0.0,
                0.0,
                0.0,
                1.0,
                0.0,
                0.0,
                0.0,
                0.0,
                1.0,
                0.0,
                0.3531000018119812,
                0.0,
                0.0,
                1.0
            ],
            "name": "Torus"
        },
        {
            "children": [
                3
            ],
            "translation": [
                0.3531000018119812,
                0.0,
                0.0
            ],
            "rotation": [
                -0.0,
                -0.0,
                -0.0,
                -1.0
            ],
            "name": "CameraPreset"
        },
        {
            "matrix": [
                0.8660249710083008,
                0.0,
                0.5,
                0.0,
                0.25,
                0.8660249710083008,
                -0.433012992143631,
                0.0,
                -0.433012992143631,
                0.5,
                0.75,
                0.0,
                -0.7681980133056641,
                0.8870390057563782,
                1.330557942390442,
                1.0
            ],
            "camera": 0,
            "name": "TurnTableCamera"
        }
    ],
    "cameras": [
        {
            "perspective": {
                "aspectRatio": 1.3333330154418946,
                "yfov": 0.7853975296020508,
                "zfar": 50000.0,
                "znear": 0.10000000149011612
            },
            "type": "perspective",
            "name": "TurnTableCamera-camera"
        }
    ],
    "meshes": [
        {
            "primitives": [
                {
                    "attributes": {
                        "NORMAL": 1,
                        "POSITION": 2
                    },
                    "indices": 0,
                    "mode": 4,
                    "material": 0
                }
            ],
            "name": "TorusMesh"
        }
    ],
    "animations": [],
    "accessors": [
        {
            "bufferView": 0,
            "byteOffset": 0,
            "componentType": 5123,
            "count": 5184,
            "max": [
                624
            ],
            "min": [
                0
            ],
            "type": "SCALAR"
        },
        {
            "bufferView": 1,
            "byteOffset": 0,
            "componentType": 5126,
            "count": 625,
            "max": [
                1.0,
                1.0,
                1.0
            ],
            "min": [
                -1.0,
                -1.0,
                -1.0
            ],
            "type": "VEC3"
        },
        {
            "bufferView": 1,
            "byteOffset": 7500,
            "componentType": 5126,
            "count": 625,
            "max": [
                0.5,
                0.20000000298023225,
                0.5
            ],
            "min": [
                -0.5,
                -0.20000000298023225,
                -0.5
            ],
            "type": "VEC3"
        }
    ],
    "materials": [
        {
            "pbrMetallicRoughness": {
                "baseColorFactor": [
                    0.6901959776878357,
                    0.6901959776878357,
                    0.6901959776878357,
                    1.0
                ],
                "metallicFactor": 0.0
            },
            "emissiveFactor": [
                0.0,
                0.0,
                0.0
            ],
            "name": "b0b0b0"
        }
    ],
    "bufferViews": [
        {
            "buffer": 0,
            "byteOffset": 15000,
            "byteLength": 10368,
            "target": 34963
        },
        {
            "buffer": 0,
            "byteOffset": 0,
            "byteLength": 15000,
            "byteStride": 12,
            "target": 34962
        }
    ],
    "buffers": [
        {
            "byteLength": 25368,
            "uri": "data:application/octet-stream;base64,"
        }
    ]
}
